<svg xmlns="http://www.w3.org/2000/svg" xmlns:xlink="http://www.w3.org/1999/xlink" x="0" y="0" version="1.1" viewBox="0 0 2100.8 1248.9" style="enable-background:new 0 0 2100.8 1248.9" xml:space="preserve"><style type="text/css">.st0,.st1{stroke:#000;stroke-width:120;stroke-linecap:round;stroke-linejoin:round;stroke-miterlimit:10}.st1{stroke-width:84}.st2{fill:#ed2d8d}.st3{fill:#fff}.st4{fill:#00b3f0}.st5{fill:#2dbdb6}</style><switch><g><g id="Layer_13"><path d="M520,465.1c35.1,35,62.9,79.4,67.4,88.9c14,29.6-18.7,55.2-53.1,27.3c-23.5-19.1-56.1-41.1-65.4-21.1 c-4.8,10.3,24.8,36.1,41.8,63c12.6,19.9-10,56.1-49.2,30s-58.9-60.4-79.2-25.3c-20.3,35.1-45.2,58.7-72.1,44.1 c-26.9-14.6-23.8-38.3-13.1-58.6c10.7-20.3,55.8-79.9,55.8-79.9s39.4-60.2,90.9-89.5C487,419.7,506.3,451.4,520,465.1z" class="st0"/><path d="M575.9,636c-67.6,25.4-104.5,78.3-104.5,78.3c-12,15.5-7.4,32,7,38.6c15.4,7,23.9,0.2,38.6-9.5 c14.6-9.7,50,3.3,49.3,19.4c-1.5,40.6,40.5,54.4,53.9,5.8c5.4-19.4,13.5-63.4,18.1-90C642.8,652,628.9,616.1,575.9,636z M567.6,721c-15.9-7.1-16.1-14.4,2.6-18.9C588.9,697.6,583.6,728.1,567.6,721z" class="st0"/><path d="M668.1,695.5c5.3-17.1,18-21.2,30-22.2c36-2.8,63.7,79.8,72.9,106.2c7.2-18.6,25.4-74.1,37.5-76.4 c33.5-6.4,23.4,85.2,1.4,128.1c-16.2,31.4-33.4,44-64.2,27.2c-21.4-11.7-45.7-66.8-49.8-82.3c-6.8,17.4-10.9,52.6-27,60.2 c-31,14.6-51.8-15.9-41.9-35S662.8,712.7,668.1,695.5z" class="st0"/><path d="M1008.5,794.1c47.9,9.9,12.7,37.6-88.6,76c-20.7,7.8-9.1,37.4,47.7,33.1c84.4-6.4,197.3-54.2,172.7-104.6 s-120-65.9-143.8-72.5c-23.8-6.6,4.9-12,51.7-29c46.8-17,81.5-28.6,86.2-40.4s-11.2-34-82.6-34c0,0-87.9,0.4-146,48.5 c0,0-71.3,60.1-22.9,81.4C931,773.8,1008.5,794.1,1008.5,794.1z" class="st0"/><path d="M1197.9,731c0,0,16.2,104.6,26.6,132.4c18.7,50.2,44.5,15.5,46.9-15.6c1.6-20.7-0.4-140.4-0.4-140.4 s51.9-16.7,66.3-55.4c12.3-32.9-145.7,0.1-203,43.2c-41.2,31-19.5,35.9-1.7,40.4C1150.2,740.2,1197.9,731,1197.9,731z" class="st0"/><path d="M1385.2,692.9c-52.5,13-66.7,62.6-66.7,62.6c-25,113.9,117.9,123.9,151.2,17.2 C1487,717.3,1437.8,679.9,1385.2,692.9z M1375.7,765.3c-4.3,10.6-26.7,13.8-25.3-0.6c1.4-14.4,17.6-14.3,17.6-14.3 C1373,749.7,1380,754.7,1375.7,765.3z" class="st0"/><path d="M1537.2,670.8c0,0,33,80,19.2,94.4c-10.2,10.7-37-20-52-38c-34.9-41.7-83-107.1-89.4-126.4 c-7.9-23.7,55.2-69.9,102.8-88.3c44.3-17.1,83.2,32.6,28.5,104c0,0,106-9.2,119.6,22.9S1537.2,670.8,1537.2,670.8z" class="st0"/><path d="M1471.4,596.6l11.8,17.8c0,0,19.7-9.7,14.9-21.7C1490,572.3,1471.4,596.6,1471.4,596.6z" class="st0"/><path d="M1673.1,463.6c7.9-11.2,18.3-30.2,22.8-44.4c7.1-22.2-8.6-29.8-27.9-16.5c-10.7,7.3-93.7,70.8-83.8,103.7 s67.5,96.7,118.5,114.1c50.9,17.4,77.5-89.7,84-108c7.9-21.8-6.7-51-25.3-22.5c-9.6,14.6-18.3,24.2-25.5,30 c-8.2,6.7-16.3,0.2-12.7-8.3c6.2-14.6,16.6-35.6,19.8-45.3c6.1-18.9-6.3-36.9-28.6-17.4c-13,11.4-20.4,22.5-27.6,28.9 C1663.7,498.6,1662.1,479.2,1673.1,463.6z" class="st0"/><g><g><path d="M876.7,506.4c15,15.2,24.2,33.3,27.6,54.5c0.6,4.1,1,8.4,1.1,12.6c0.1,7.4-1.4,14.6-3.9,21.6 c-8.7,24.8-30.3,43-55.9,47.3c-4.3,0.7-8.6,1-13,0.9c-17.1-0.5-34.3-1-51.4-1.5c-33.2-1-61.2-25.8-67.4-58.3 c-1-5.2-1.4-10.4-1.3-15.6c1.4-48.1,2.8-96.2,4.3-144.3c1-33.6,25.2-62.1,58-68.4c5-1,10.1-1.4,15.3-1.3 c16.9,0.5,33.8,1,50.7,1.5c33.8,1.1,62.3,26.2,68,59.9c1.2,7.3,1.2,14.6,0.5,21.9c-0.7,7.9-2.2,15.7-4.6,23.3 c-5.4,16.9-14.8,31-28,42.6c-0.5,0.5-1.1,0.9-1.8,1.5C875.6,505.3,876.1,505.8,876.7,506.4" class="st1"/><path d="M812.4,418.6c-28.4-0.8-52,18.3-52.7,42.8c-0.7,24.5,21.7,45,50.1,45.9c28.4,0.8,52-18.3,52.7-42.8 C863.2,440,840.8,419.5,812.4,418.6z M795.1,486.2c-3.1-0.1-5.5-3.3-5.4-7.2c0.1-3.9,2.7-6.9,5.8-6.8c3.1,0.1,5.5,3.3,5.4,7.2 C800.7,483.2,798.1,486.3,795.1,486.2z M825.6,487.1c-3.1-0.1-5.5-3.3-5.4-7.2c0.1-3.9,2.7-6.9,5.8-6.8 c3.1,0.1,5.5,3.3,5.4,7.2C831.3,484.2,828.7,487.2,825.6,487.1z" class="st1"/><g><path d="M844.2,430.8c0,0-0.3-7.5,1.8-9.8c0,0,0.1,0,0.1,0c2.5,0.1,4.6-2.2,4-4.9c-0.3-1.3-1.4-2.5-2.7-2.9 c-2.6-0.8-5.1,1.1-5.2,3.7c0,1.4,0.6,2.6,1.6,3.3c-0.5,2.9-1.8,5.6-3.9,7.6C840.1,427.8,843.2,429.9,844.2,430.8z" class="st1"/><path d="M779.9,428.8c0,0,0.7-7.5-1.2-9.9c0,0-0.1,0-0.1,0c-2.5-0.1-4.5-2.5-3.7-5.1c0.4-1.3,1.5-2.4,2.9-2.7 c2.7-0.6,5,1.4,4.9,4c0,1.4-0.8,2.5-1.8,3.2c0.3,2.9,1.5,5.6,3.4,7.8C784.1,426.1,780.9,428.1,779.9,428.8z" class="st1"/></g><g><g><path d="M857,528.8c-0.3,9.6-2.7,19-6.9,27.6c3.3,9.9,7.6,5.3,7.6,5.3C863.6,551.9,857,528.8,857,528.8z" class="st1"/><path d="M850.1,512.9c-1.4-3.2-4.2-5.5-7.6-6.3c-2.8-0.6-5.7,0.1-8.1,1.5c-10.7,6.2-37.3,6.1-50-1.9 c-2.3-1.4-5-2.1-7.7-1.5c-3.2,0.7-5.9,2.8-7.4,5.7c-7.6,11.4-4.6,46.2,18.3,69.5c5,5.7,12,9.2,19.5,9.7l0,0c0,0,0.1,0,0.1,0 c0,0,0.1,0,0.1,0l0,0c7.5,0,14.8-3.1,20.1-8.5C852,559.2,857,524.8,850.1,512.9z" class="st1"/></g><path d="M758.9,558.6c0,0,4,5.2,7.9-4.8c-3.7-8.8-5.5-18.3-5.2-27.9C761.6,525.9,753.6,548.5,758.9,558.6z" class="st1"/></g></g><g><path d="M977.2,492.6l18.1,0.5c5.5,0.2,12.2-3.4,12.5-11.9c0.2-6-2.5-11.4-10.7-11.6l-19.2-0.6L977.2,492.6z M995.3,508.4l-18.5-0.6l-0.8,27.3l17.6,0.5c10.4,0.3,15.7-4.7,15.9-12.9C1009.7,513.9,1003.6,508.7,995.3,508.4 M991.4,560.5 l-25.9-0.8c-6.9-0.2-12.1-5.5-11.9-11.7l2.6-88.1c0.2-6.4,6-11.1,12.6-10.9l26.5,0.8c23.5,0.7,34.9,16.1,34.4,31.8 c-0.3,11-7.6,17.5-17.1,21.8c9.6,4.2,19.1,11.6,18.7,25.2C1030.7,547,1015.5,561.2,991.4,560.5 M1075.9,564.1 c-22.3-0.7-33.7-13.7-33.2-30.2l0.7-23.4c0.5-16.5,12.6-28.8,34.9-28.2c22.3,0.7,33.7,13.7,33.2,30.2l-0.7,23.4 C1110.4,552.4,1098.2,564.7,1075.9,564.1 M1076.5,545.6c8.2,0.2,12.5-3.7,12.7-10.3l0.7-23.5c0.2-6.4-3.9-10.6-12.1-10.9 c-8.2-0.2-12.5,3.7-12.7,10.1l-0.7,23.5C1064.2,541.1,1068.3,545.3,1076.5,545.6 M1150.8,505.3l-1,34.5 c-0.2,5.8,4.3,9.6,11.6,9.8c7.8,0.2,11.7-3.7,11.9-10.3l0.9-28.7c0.2-5.7-2.9-9-10.6-9.3 C1158.6,501.2,1154.1,502.5,1150.8,505.3 M1128.1,539.2l2.3-78.5c0.1-5,4.2-9.5,11.1-9.3c6.9,0.2,10.7,4.9,10.5,9.9l-0.8,27.6 c5.1-2.7,9.9-4.1,17.2-3.9c19.9,0.6,27.8,12.1,27.3,26.9l-0.8,26.4c-0.5,16.5-12,28.9-34.3,28.2 C1139.5,566,1127.6,554,1128.1,539.2 M1234.9,507.8l-1,34.5c-0.2,5.8,4.3,9.6,11.7,9.8c7.8,0.2,11.7-3.7,11.9-10.3l0.9-28.7 c0.2-5.7-2.9-9-10.6-9.3C1242.7,503.7,1238.3,505,1234.9,507.8 M1212.2,541.7l2.3-78.5c0.1-5,4.2-9.5,11.1-9.3 c6.9,0.2,10.7,4.9,10.5,9.9l-0.8,27.6c5.1-2.7,9.9-4.1,17.2-3.9c19.9,0.6,27.8,12.1,27.3,26.9l-0.8,26.4 c-0.5,16.5-12,28.9-34.3,28.2C1223.7,568.5,1211.8,556.5,1212.2,541.7 M1310.6,571.1c-6.3-0.2-15-2.5-14.5-19l2.6-86.2 c0.2-5.2,5-9.6,11.1-9.4c6.1,0.2,10.7,4.6,10.5,10.1l-2.5,84.3c-0.1,3.3,0,4.1,2.2,6.5c1.5,1.8,2.7,2.6,2.7,5.6 C1322.5,568.6,1318,571.3,1310.6,571.1 M1369.5,541.7c-4.1-0.1-7.5-0.5-12.1-1.3l-0.2,5.2c-0.2,5.3,3.8,8.9,12.3,9.2 c5,0.1,9.1-1,14.2-3c0.6-0.3,2.1-0.9,4.7-0.8c7.5,0.2,9.6,5.3,9.5,8.9c-0.3,11-20.5,13.2-30.6,12.9 c-20.7-0.6-32.3-12.9-31.8-28.4l0.8-26.2c0.5-15.9,12.4-27.6,34.3-26.9c20.6,0.6,30.4,11.7,30,27.6 C1400.2,533.8,1390.7,542.3,1369.5,541.7 M1379.2,517c0.2-6.3-3-8.9-9.2-9.1c-7.5-0.2-11.7,3.6-11.9,9.9l-0.2,6.8 c5,0.6,9.7,0.9,11.3,1C1375.2,525.7,1379,523.8,1379.2,517" class="st1"/></g></g><path d="M1839.4,420.6c0,0,135.8,31.5-41.3,249.6C1920.9,488.3,1839.4,420.6,1839.4,420.6z"/><path d="M1360.7,931c0,0,105.9,23.8,156.3-76.4C1522.2,909,1460.1,960.4,1360.7,931z"/><path d="M321.9,433.4c0,0,147.4-167.4,254.2-35.4C538.6,290.7,430.5,276.2,321.9,433.4z"/><path d="M276.4,748.4c0,0,44.4,26.2,90.4-1.8C308.4,810.4,278.4,755.3,276.4,748.4z"/><path d="M691.7,916.7c0,0,81.7,65.7,137.6,8.6C805,981.1,751.3,963.7,691.7,916.7z"/><path d="M419.7,820.7c0,0,36.1,38.4,81.3,15.8C469.4,861.3,446.8,859.1,419.7,820.7z"/><path d="M948.2,990.1c0,0,117.5-11.3,185.2-52C1101.8,983.3,1022.8,994.6,948.2,990.1z"/><path d="M1665.7,748c0,0-9,65.5-52,81.3C1704.1,829.3,1665.7,748,1665.7,748z"/><polygon points="1414.7 418.6 1421.4 306.8 1445.2 306.8"/><polygon points="1445.2 418.6 1511.2 337.3 1526.5 345.7"/><polygon points="621.8 362.7 586.2 250.9 621.8 244.1"/><polygon points="559.1 311.9 520.2 262.7 506.6 274.6"/><polygon points="1335.7 930.2 1349.4 982.7 1361.2 973.3"/><polygon points="1162.8 935.9 1171.8 976.5 1153.8 976.5"/><circle cx="627.5" cy="423.1" r="11.3"/><circle cx="639.6" cy="377.1" r="4.2"/><circle cx="642.2" cy="454.2" r="3.4"/><circle cx="595.6" cy="353.4" r="9.3"/><circle cx="384.6" cy="782.8" r="11.9"/><circle cx="396.5" cy="816.7" r="3.4"/><circle cx="312.6" cy="460.1" r="4.2"/><circle cx="1456.2" cy="456.7" r="9.3"/><circle cx="1430.8" cy="439.8" r="4.2"/><circle cx="1487.5" cy="416.9" r="6.8"/><circle cx="1539.2" cy="380.5" r="4.2"/><circle cx="1353.7" cy="394.9" r="5.1"/><circle cx="1394.3" cy="367.8" r="3.4"/><circle cx="1340.1" cy="306.8" r="3.4"/><circle cx="1317.3" cy="937.8" r="4.2"/><circle cx="1164.8" cy="924.3" r="4.2"/><circle cx="1691.7" cy="744.7" r="5.9"/><circle cx="519.3" cy="865" r="4.2"/><circle cx="549" cy="877.7" r="3.4"/></g><g id="Layer_16"><path d="M523.2,462.6c34.4,35.7,61.4,80.6,65.7,90.2c13.4,29.9-19.8,54.9-53.7,26.3c-23.2-19.5-55.3-42.2-65-22.3 c-5,10.2,24.1,36.5,40.6,63.8c12.2,20.1-11.1,55.9-49.8,29.1s-57.7-61.5-78.7-26.8c-21,34.7-46.3,57.8-72.9,42.7 c-26.6-15.1-23-38.7-11.9-58.8s57.3-78.8,57.3-78.8s40.5-59.5,92.6-87.7C491.1,416.6,509.8,448.7,523.2,462.6z" class="st2"/><path d="M575.8,634.6c-68,24.1-106,76.3-106,76.3c-12.3,15.2-8,31.9,6.2,38.7c15.2,7.3,23.9,0.6,38.7-8.8 c14.8-9.4,49.9,4.3,49,20.4c-2.3,40.6,39.5,55.2,53.8,6.8c5.7-19.3,14.7-63.1,19.8-89.6C642.5,651.9,629.3,615.7,575.8,634.6z M566,719.4c-15.8-7.4-15.9-14.7,2.9-18.9C587.7,696.4,581.8,726.8,566,719.4z" class="st2"/><path d="M666.9,695.9c5.6-17,18.4-20.9,30.4-21.6c36.1-2.1,62.2,81,70.8,107.6c7.6-18.5,26.8-73.7,38.9-75.7 c33.6-5.7,21.8,85.7-1.1,128.1c-16.8,31.1-34.3,43.3-64.7,25.9c-21.2-12.1-44.4-67.7-48.2-83.3c-7.2,17.3-11.9,52.4-28.1,59.7 c-31.3,14.1-51.5-16.9-41.2-35.8C634,781.8,661.3,712.9,666.9,695.9z" class="st2"/><path d="M1023.4,800.9c47.7,10.8,12,37.8-90.1,74.3c-20.8,7.4-9.9,37.2,47.1,34c84.5-4.8,198.3-50.4,174.7-101.3 c-23.6-50.9-118.7-68.2-142.4-75.2c-23.7-7.1,5.1-11.9,52.3-28c47.1-16.1,82-27.1,86.9-38.8s-10.5-34.2-81.9-35.6 c0,0-87.9-1.3-146.9,45.7c0,0-72.5,58.7-24.5,81C946.3,779.1,1023.4,800.9,1023.4,800.9z" class="st2"/><path d="M1213.9,740.9c0,0,14.2,104.9,24,132.9c17.8,50.6,44.2,16.4,47.2-14.7c2-20.7,2.2-140.3,2.2-140.3 s52.2-15.7,67.4-54.1c12.9-32.6-145.7-2.7-203.8,39.3c-41.8,30.2-20.1,35.5-2.5,40.4C1166,749.2,1213.9,740.9,1213.9,740.9z" class="st2"/><path d="M1401.8,705.9c-52.8,12-67.9,61.3-67.9,61.3c-27.1,113.4,115.5,126.1,150.9,20.1 C1503.1,732.2,1454.5,693.9,1401.8,705.9z M1390.8,778.1c-4.5,10.5-27,13.3-25.3-1.1c1.7-14.4,17.9-13.9,17.9-13.9 C1388.4,762.4,1395.3,767.6,1390.8,778.1z" class="st2"/><path d="M1683.5,657.6c-13-32.3-119.1-25.2-119.1-25.2c56.1-70.4,18.1-120.7-26.5-104.5 c-48,17.5-111.9,62.4-104.5,86.3c6,19.4,52.9,85.8,87,128.1c14.7,18.3,40.9,49.6,51.3,39c14-14.2-17.4-94.8-17.4-94.8 S1696.5,689.9,1683.5,657.6z M1510.3,627l-11.5-18c0,0,19-23.9,26.8-3.4C1530.2,617.6,1510.3,627,1510.3,627z" class="st2"/><path d="M1693.9,481.7c8.1-11,18.9-29.8,23.7-44c7.5-22.1-8.1-29.9-27.6-17c-10.8,7.1-95,69-85.8,102.1 c9.3,33,65.7,98,116.3,116.4c50.6,18.4,79.2-88.2,86.1-106.4c8.3-21.7-5.7-51.1-24.9-23c-9.8,14.5-18.8,23.8-26,29.5 c-8.4,6.5-16.3-0.1-12.6-8.6c6.4-14.5,17.3-35.2,20.6-44.9c6.4-18.7-5.6-37-28.2-18c-13.2,11.1-20.8,22.1-28.1,28.4 C1683.7,516.5,1682.6,497.1,1693.9,481.7z" class="st2"/></g><g id="Layer_15"><g><path d="M527.7,449c34.4,35.7,61.4,80.6,65.7,90.2c13.4,29.9-19.8,54.9-53.7,26.3c-23.2-19.5-55.3-42.2-65-22.3 c-5,10.2,24.1,36.5,40.6,63.8c12.2,20.1-11.1,55.9-49.8,29.1c-38.7-26.9-57.7-61.5-78.7-26.8s-46.3,57.8-72.9,42.7 c-26.6-15.1-23-38.7-11.9-58.8c11.1-20.1,57.3-78.8,57.3-78.8s40.5-59.5,92.6-87.7C495.6,402.9,514.3,435.1,527.7,449z" class="st3"/><path d="M580.3,620.9c-68,24.1-106,76.3-106,76.3c-12.3,15.2-8,31.9,6.2,38.7c15.2,7.3,23.9,0.6,38.7-8.8 c14.8-9.4,49.9,4.3,49,20.4c-2.3,40.6,39.5,55.2,53.8,6.8c5.7-19.3,14.7-63.1,19.8-89.6C646.9,638.2,633.7,602,580.3,620.9z M570.4,705.7c-15.8-7.4-15.9-14.7,2.9-18.9S586.3,713.2,570.4,705.7z" class="st3"/><path d="M671.3,682.2c5.6-17,18.4-20.9,30.4-21.6c36.1-2.1,62.2,81,70.8,107.6c7.6-18.5,26.8-73.7,38.9-75.7 c33.6-5.7,21.8,85.7-1.1,128.1c-16.8,31.1-34.3,43.3-64.7,25.9c-21.2-12.1-44.4-67.7-48.2-83.3c-7.2,17.3-11.9,52.4-28.1,59.7 c-31.3,14.1-51.5-16.9-41.2-35.8C638.5,768.2,665.7,699.2,671.3,682.2z" class="st3"/><path d="M1009.8,787.3c47.7,10.8,12,37.8-90.1,74.3c-20.8,7.4-9.9,37.2,47.1,34c84.5-4.8,198.3-50.4,174.7-101.3 c-23.6-50.9-118.7-68.2-142.4-75.2s5.1-11.9,52.3-28c47.1-16.1,82-27.1,86.9-38.8c4.9-11.7-10.5-34.2-81.9-35.6 c0,0-87.9-1.3-146.9,45.7c0,0-72.5,58.7-24.5,81C932.7,765.4,1009.8,787.3,1009.8,787.3z" class="st3"/><path d="M1202.3,727.3c0,0,14.2,104.9,24,132.9c17.8,50.6,44.2,16.4,47.2-14.7c2-20.7,2.2-140.3,2.2-140.3 s52.2-15.7,67.4-54.1c12.9-32.6-145.7-2.7-203.8,39.3c-41.8,30.2-20.1,35.5-2.5,40.4C1154.4,735.6,1202.3,727.3,1202.3,727.3z" class="st3"/><path d="M1390.2,692.2c-52.8,12-67.9,61.3-67.9,61.3c-27.1,113.4,115.5,126.1,150.9,20.1 C1491.5,718.6,1442.9,680.2,1390.2,692.2z M1379.2,764.4c-4.5,10.5-27,13.3-25.3-1.1c1.7-14.4,17.9-13.9,17.9-13.9 C1376.8,748.8,1383.7,753.9,1379.2,764.4z" class="st3"/><path d="M1671.9,643.9c-13-32.3-119.1-25.2-119.1-25.2c56.1-70.4,18.1-120.7-26.5-104.5 c-48,17.5-111.9,62.4-104.5,86.3c6,19.4,52.9,85.8,87,128.1c14.7,18.3,40.9,49.6,51.3,39c14-14.2-17.4-94.8-17.4-94.8 S1684.9,676.3,1671.9,643.9z M1498.7,613.3l-11.5-18c0,0,19-23.9,26.8-3.4C1518.6,604,1498.7,613.3,1498.7,613.3z" class="st3"/><path d="M1682.3,468c8.1-11,18.9-29.8,23.7-44c7.5-22.1-8.1-29.9-27.6-17c-10.8,7.1-95,69-85.8,102.1 s65.7,98,116.3,116.4c50.6,18.4,79.2-88.2,86.1-106.4c8.3-21.7-5.7-51.1-24.9-23c-9.8,14.5-18.8,23.8-26,29.5 c-8.4,6.5-16.3-0.1-12.6-8.6c6.4-14.5,17.3-35.2,20.6-44.9c6.4-18.7-5.6-37-28.2-18c-13.2,11.1-20.8,22.1-28.1,28.4 C1672.1,502.9,1671,483.4,1682.3,468z" class="st3"/></g></g><g id="Layer_17"><path d="M1560,400.4c0,0,105.1-114.4,133.3-75.1C1676.8,272.8,1624,300.6,1560,400.4z"/><path d="M1196.9,635.5c0,0,100.3-28.7,127-14.3C1306.5,595.9,1242.8,609.8,1196.9,635.5z" class="st4"/><path d="M753.3,670l16.8,43.4C770,713.4,782.2,684.4,753.3,670z" class="st4"/><path d="M266.2,651c0,0,45.1,88.3,126,17.3C349.7,728.1,288.6,728,266.2,651z" class="st4"/><path d="M519.6,300.7c0,0-41.1-51.2-111.8,14C474,268.1,519.6,300.7,519.6,300.7z"/><path d="M887.3,650.7c0,0,65-77,188.7-64.1C1011.5,587.9,942.1,608.1,887.3,650.7z" class="st4"/><path d="M1399.4,591.4c0,0,1.7-30.5,61-69.5C1391,540.6,1399.4,591.4,1399.4,591.4z" class="st4"/></g><g id="Layer_14"><g><g><path d="M872.7,507.4c15.4,14.7,25.2,32.6,29.2,53.6c0.8,4.1,1.3,8.3,1.5,12.5c0.3,7.4-1,14.6-3.2,21.7 c-7.9,25-29,43.9-54.5,48.9c-4.3,0.8-8.6,1.3-13,1.3c-17.2,0-34.3,0-51.5,0c-33.2,0-61.9-24-69.1-56.2 c-1.1-5.1-1.7-10.3-1.7-15.6c0-48.1,0-96.2,0-144.3c0-33.7,23.3-62.8,55.9-70.1c5-1.1,10.1-1.7,15.2-1.7c16.9,0,33.8,0,50.8,0 c33.8,0.1,63.1,24.4,69.8,57.9c1.5,7.3,1.6,14.6,1.2,21.9c-0.5,8-1.7,15.8-3.9,23.4c-4.9,17-13.9,31.4-26.7,43.4 c-0.5,0.5-1,1-1.7,1.6C871.5,506.3,872.1,506.8,872.7,507.4" class="st5"/><path d="M805.8,421.6c-28.4,0-51.4,19.9-51.4,44.4c0,24.5,23,44.4,51.4,44.4c28.4,0,51.4-19.9,51.4-44.4 C857.2,441.4,834.2,421.6,805.8,421.6z M790.5,489.6c-3.1,0-5.6-3.1-5.6-7c0-3.9,2.5-7,5.6-7c3.1,0,5.6,3.1,5.6,7 C796.1,486.5,793.6,489.6,790.5,489.6z M821.1,489.6c-3.1,0-5.6-3.1-5.6-7c0-3.9,2.5-7,5.6-7c3.1,0,5.6,3.1,5.6,7 C826.6,486.5,824.1,489.6,821.1,489.6z" class="st3"/><g><path d="M838,432.7c0,0-0.5-7.5,1.5-9.9c0,0,0.1,0,0.1,0c2.5,0,4.5-2.4,3.8-5c-0.3-1.3-1.4-2.4-2.8-2.8 c-2.7-0.7-5.1,1.3-5.1,3.8c0,1.4,0.7,2.5,1.7,3.3c-0.4,2.9-1.6,5.6-3.6,7.7C833.8,429.9,836.9,431.9,838,432.7z" class="st3"/><path d="M773.6,432.7c0,0,0.5-7.5-1.5-9.9c0,0-0.1,0-0.1,0c-2.5,0-4.5-2.4-3.8-5c0.3-1.3,1.4-2.4,2.8-2.8 c2.7-0.7,5.1,1.3,5.1,3.8c0,1.4-0.7,2.5-1.7,3.3c0.4,2.9,1.6,5.6,3.6,7.7C777.8,429.9,774.6,431.9,773.6,432.7z" class="st3"/></g><g><g><path d="M853.7,530.3c0,9.6-2.1,19.1-6.1,27.8c3.6,9.8,7.8,5,7.8,5C861,553.2,853.7,530.3,853.7,530.3z" class="st3"/><path d="M846.3,514.6c-1.5-3.1-4.3-5.4-7.7-6c-2.8-0.6-5.7,0.3-8.1,1.8c-10.5,6.5-37.1,7.2-50-0.4 c-2.3-1.4-5.1-1.9-7.7-1.2c-3.2,0.8-5.8,3-7.2,5.9c-7.3,11.7-3.2,46.3,20.3,68.9c5.1,5.6,12.2,8.8,19.8,9.1v0 c0,0,0.1,0,0.1,0c0,0,0.1,0,0.1,0v0c7.5-0.3,14.7-3.5,19.8-9.1C849.5,560.9,853.6,526.3,846.3,514.6z" class="st3"/></g><path d="M756.5,563.1c0,0,4.2,5,7.8-5c-4-8.7-6-18.1-6.1-27.7C758.2,530.3,751,553.1,756.5,563.1z" class="st3"/></g></g><g><path d="M972.7,490.6h18.1c5.5,0,12.1-3.8,12.1-12.3c0-6-2.8-11.3-11-11.3h-19.2V490.6z M991.3,505.9h-18.5v27.3 h17.6c10.4,0,15.5-5.2,15.5-13.3C1005.9,510.9,999.6,505.9,991.3,505.9 M988.9,558H963c-6.9,0-12.3-5.2-12.3-11.3v-88.1 c0-6.4,5.7-11.3,12.3-11.3h26.5c23.6,0,35.3,15.1,35.3,30.8c0,11-7.1,17.7-16.5,22.3c9.7,3.9,19.5,11,19.5,24.7 C1027.9,543.4,1013.1,558,988.9,558 M1073.6,559.1c-22.3,0-34.1-12.7-34.1-29.2v-23.4c0-16.5,11.8-29.2,34.1-29.2 s34.1,12.7,34.1,29.2v23.4C1107.6,546.4,1095.9,559.1,1073.6,559.1 M1073.6,540.6c8.2,0,12.4-4.1,12.4-10.7v-23.6 c0-6.4-4.2-10.5-12.4-10.5c-8.2,0-12.4,4.1-12.4,10.5v23.6C1061.2,536.5,1065.4,540.6,1073.6,540.6 M1146.6,498.2v34.6 c0,5.8,4.6,9.4,11.9,9.4c7.9,0,11.6-4.1,11.6-10.7v-28.7c0-5.7-3.1-9-10.8-9C1154.3,493.8,1149.9,495.2,1146.6,498.2 M1124.9,532.7v-78.5c0-5,3.9-9.6,10.8-9.6c6.9,0,10.8,4.6,10.8,9.6v27.6c5-2.8,9.7-4.4,17.1-4.4c19.9,0,28.1,11.3,28.1,26.1 v26.4c0,16.5-11.1,29.2-33.5,29.2C1137.2,559.1,1124.9,547.5,1124.9,532.7 M1230.8,498.2v34.6c0,5.8,4.6,9.4,11.9,9.4 c7.9,0,11.6-4.1,11.6-10.7v-28.7c0-5.7-3.1-9-10.8-9C1238.5,493.8,1234.1,495.2,1230.8,498.2 M1209.1,532.7v-78.5 c0-5,3.9-9.6,10.8-9.6c6.9,0,10.8,4.6,10.8,9.6v27.6c5-2.8,9.7-4.4,17.1-4.4c19.9,0,28.1,11.3,28.1,26.1v26.4 c0,16.5-11.1,29.2-33.5,29.2C1221.4,559.1,1209.1,547.5,1209.1,532.7 M1308.4,559.1c-6.3,0-15.1-2-15.1-18.5v-86.2 c0-5.2,4.7-9.7,10.8-9.7c6.1,0,10.8,4.2,10.8,9.7v84.3c0,3.3,0.2,4.1,2.4,6.4c1.6,1.7,2.8,2.5,2.8,5.5 C1320.1,556.3,1315.8,559.1,1308.4,559.1 M1366.3,528c-4.1,0-7.5-0.3-12.1-0.9v5.2c0,5.3,4.1,8.8,12.6,8.8 c5,0,9.1-1.3,14.1-3.5c0.6-0.3,2-0.9,4.7-0.9c7.5,0,9.7,5,9.7,8.6c0,11-20.1,13.8-30.2,13.8c-20.7,0-32.7-11.9-32.7-27.5v-26.2 c0-15.9,11.6-28,33.5-28c20.6,0,30.8,10.8,30.8,26.7C1396.8,519.2,1387.5,528,1366.3,528 M1375.3,503c0-6.3-3.3-8.8-9.4-8.8 c-7.5,0-11.6,3.9-11.6,10.2v6.8c5,0.5,9.7,0.6,11.3,0.6C1371.5,511.8,1375.3,509.8,1375.3,503" class="st3"/></g></g></g></g></switch></svg>